<svg xmlns="http://www.w3.org/2000/svg" xmlns:xlink="http://www.w3.org/1999/xlink" viewBox="0 0 305.02 301.87"><defs><style>.cls-1{fill:none;}.cls-2{isolation:isolate;}.cls-3{fill:#efecf5;}.cls-4{fill:#ddd9e7;}.cls-5{fill:#3ca4dc;}.cls-6{fill:#80c9ef;}.cls-26,.cls-7{opacity:0.5;}.cls-11,.cls-12,.cls-25,.cls-26,.cls-29,.cls-31,.cls-32,.cls-7{mix-blend-mode:color-burn;}.cls-8{fill:url(#linear-gradient);}.cls-9{fill:url(#linear-gradient-2);}.cls-10{fill:#082947;}.cls-11{fill:#e8e8e8;}.cls-12{fill:#e2e2e2;}.cls-13{fill:#f3a974;}.cls-14{fill:#f2441c;}.cls-15{fill:#101b29;}.cls-16{fill:url(#linear-gradient-3);}.cls-17{fill:url(#linear-gradient-4);}.cls-18{fill:#00a8dd;}.cls-19{fill:#092032;}.cls-20{fill:#fff;}.cls-21{clip-path:url(#clip-path);}.cls-22{fill:url(#linear-gradient-5);}.cls-23{fill:url(#linear-gradient-6);}.cls-24{fill:#3dd1ea;}.cls-25{fill:url(#linear-gradient-7);}.cls-26{fill:#c4c2c0;}.cls-27{fill:url(#linear-gradient-8);}.cls-28{fill:url(#linear-gradient-9);}.cls-29{fill:url(#linear-gradient-10);}.cls-30{fill:#16b6db;}.cls-31{fill:#d6d6d6;}.cls-32{fill:#c1c1c1;}</style><linearGradient id="linear-gradient" x1="-13064.87" y1="277.48" x2="-13131.56" y2="277.48" gradientTransform="translate(13827.63)" gradientUnits="userSpaceOnUse"><stop offset="0" stop-color="#828184"/><stop offset="1" stop-color="#fff"/></linearGradient><linearGradient id="linear-gradient-2" x1="-13064.86" y1="301.65" x2="-13131.56" y2="301.65" xlink:href="#linear-gradient"/><linearGradient id="linear-gradient-3" x1="12353.18" y1="-7950.19" x2="12322.03" y2="-7891.46" gradientTransform="matrix(0.84, 0.54, -0.54, 0.84, -13953.9, 416.08)" gradientUnits="userSpaceOnUse"><stop offset="0" stop-color="#101e2c"/><stop offset="1" stop-color="#082947"/></linearGradient><linearGradient id="linear-gradient-4" x1="14720.89" y1="372.39" x2="14689.75" y2="431.11" gradientTransform="translate(-13987.28)" xlink:href="#linear-gradient-3"/><clipPath id="clip-path" transform="translate(-571.65 -261.04)"><path class="cls-1" d="M866.42,408.79A137.49,137.49,0,1,1,663.89,287.62c0.45-.24.91-0.48,1.36-0.71,2.61-1.38,5.29-2.66,8-3.87A136.45,136.45,0,0,1,694,275.77q2.68-.71,5.41-1.3,1.87-.42,3.76-0.77c1.35-.26,2.69-0.49,4.05-0.71,3.23-.5,6.49-0.91,9.79-1.18,0.95-.09,1.9-0.16,2.86-0.23,3-.19,6-0.29,9-0.29a139.89,139.89,0,0,1,16.83,1,137.63,137.63,0,0,1,107,76.66q1.59,3.27,3,6.63,2,4.69,3.6,9.55c0.21,0.63.42,1.26,0.62,1.9q1.22,3.81,2.2,7.72c0.28,1,.53,2.1.77,3.16,0.34,1.48.66,3,.95,4.45,0.64,3.26,1.15,6.57,1.55,9.91a0.2,0.2,0,0,0,0,.07A139.43,139.43,0,0,1,866.42,408.79Z"/></clipPath><linearGradient id="linear-gradient-5" x1="-18625.81" y1="489.52" x2="-18692.51" y2="489.52" gradientTransform="translate(19415.63)" xlink:href="#linear-gradient"/><linearGradient id="linear-gradient-6" x1="-18625.81" y1="513.68" x2="-18692.51" y2="513.68" gradientTransform="translate(19415.63)" xlink:href="#linear-gradient"/><linearGradient id="linear-gradient-7" x1="-17382.76" y1="513.9" x2="-17465.53" y2="513.9" gradientTransform="matrix(-1, 0, 0, 1, -16605.71, 0)" gradientUnits="userSpaceOnUse"><stop offset="0" stop-color="#fff"/><stop offset="1" stop-color="#bfbcbb"/></linearGradient><linearGradient id="linear-gradient-8" x1="-13169.59" y1="518.49" x2="-13236.29" y2="518.49" xlink:href="#linear-gradient"/><linearGradient id="linear-gradient-9" x1="-13169.59" y1="542.65" x2="-13236.29" y2="542.65" xlink:href="#linear-gradient"/><linearGradient id="linear-gradient-10" x1="-22830.09" y1="542.87" x2="-22912.86" y2="542.87" gradientTransform="matrix(-1, 0, 0, 1, -22193.71, 0)" xlink:href="#linear-gradient-7"/></defs><title>Infinite-opportunity-2</title><g class="cls-2"><g id="OBJECTS"><path class="cls-3" d="M876.67,408.79A147.74,147.74,0,1,1,659,278.59c0.49-.25,1-0.52,1.46-0.76,2.81-1.48,5.68-2.86,8.6-4.15a146.62,146.62,0,0,1,22.32-7.82q2.88-.76,5.81-1.39,2-.45,4-0.83c1.45-.28,2.9-0.53,4.35-0.76,3.47-.54,7-1,10.52-1.27,1-.1,2-0.18,3.07-0.24,3.22-.2,6.45-0.31,9.71-0.31A150.3,150.3,0,0,1,747,262.14a147.89,147.89,0,0,1,115,82.37q1.71,3.51,3.22,7.13,2.12,5,3.87,10.27c0.22,0.67.45,1.36,0.66,2q1.31,4.09,2.36,8.3c0.3,1.13.57,2.25,0.83,3.39,0.36,1.59.71,3.18,1,4.78,0.69,3.5,1.24,7.06,1.67,10.65a0.21,0.21,0,0,0,0,.08A149.83,149.83,0,0,1,876.67,408.79Z" transform="translate(-571.65 -261.04)"/><path class="cls-4" d="M866.42,408.79A137.49,137.49,0,1,1,663.89,287.62c0.45-.24.91-0.48,1.36-0.71,2.61-1.38,5.29-2.66,8-3.87A136.45,136.45,0,0,1,694,275.77q2.68-.71,5.41-1.3,1.87-.42,3.76-0.77c1.35-.26,2.69-0.49,4.05-0.71,3.23-.5,6.49-0.91,9.79-1.18,0.95-.09,1.9-0.16,2.86-0.23,3-.19,6-0.29,9-0.29a139.89,139.89,0,0,1,16.83,1,137.63,137.63,0,0,1,107,76.66q1.59,3.27,3,6.63,2,4.69,3.6,9.55c0.21,0.63.42,1.26,0.62,1.9q1.22,3.81,2.2,7.72c0.28,1,.53,2.1.77,3.16,0.34,1.48.66,3,.95,4.45,0.64,3.26,1.15,6.57,1.55,9.91a0.2,0.2,0,0,0,0,.07A139.43,139.43,0,0,1,866.42,408.79Z" transform="translate(-571.65 -261.04)"/><path class="cls-5" d="M695.57,286.27c3.86-9.08.7-18.13-3.35-17.54C686.11,269.6,689.7,281.54,695.57,286.27Z" transform="translate(-571.65 -261.04)"/><path class="cls-5" d="M707.1,301.34q-1.26-2.07-2.67-4c5.16-5.89,5.33-13.37,2.07-14.16-4.12-1-5.53,5.65-4.29,11.23A66.16,66.16,0,0,0,691.81,284a1.06,1.06,0,0,0-.35-0.18c-6.12-4.07-14.24-2.77-15,1.52s7.51,9.82,19.95,5.61a63.42,63.42,0,0,1,10.83,14.87l2.16-.45C708.66,304,707.9,302.66,707.1,301.34Z" transform="translate(-571.65 -261.04)"/><path class="cls-6" d="M693.61,308.34c-1.8,4.38,0,9.33,2.55,13.56h33.38a26.09,26.09,0,0,0-5.21-11.57C715.22,298.23,697.82,298.11,693.61,308.34Z" transform="translate(-571.65 -261.04)"/><path class="cls-5" d="M704.65,321.9c-6.16-10.89-18.47-14.78-24.36-8.68-2.67,2.76-2.5,5.93-1.4,8.68h25.76Z" transform="translate(-571.65 -261.04)"/><path class="cls-5" d="M748.44,298.4c8.45,0.33,13.5,12.56,9.53,22.62a7.71,7.71,0,0,1-.41.88H726c-5.9-5.6-15.5-19.13-9.71-23.5,6-4.55,17.11,2.11,23.21,9.68C740.84,303.13,743.14,298.19,748.44,298.4Z" transform="translate(-571.65 -261.04)"/><g class="cls-7"><path class="cls-8" d="M695.57,286.27c3.86-9.08.7-18.13-3.35-17.54C686.11,269.6,689.7,281.54,695.57,286.27Z" transform="translate(-571.65 -261.04)"/><path class="cls-9" d="M748.44,298.4c-5.3-.21-7.6,4.73-8.89,9.68-6.1-7.57-17.19-14.23-23.21-9.68a4.8,4.8,0,0,0-1.78,4.27,21.61,21.61,0,0,0-7.7-1.72q-1.15-1.87-2.43-3.65c5.16-5.89,5.33-13.37,2.07-14.16-4.12-1-5.53,5.65-4.29,11.23A66.16,66.16,0,0,0,691.81,284a1.06,1.06,0,0,0-.35-0.18c-6.12-4.07-14.24-2.77-15,1.52s7.51,9.82,19.95,5.61a63.11,63.11,0,0,1,8,10.05c-4.87.5-9,3-10.79,7.3a9.84,9.84,0,0,0-.71,3.05c-4.76-1.8-9.55-1.33-12.61,1.83-2.67,2.76-2.5,5.93-1.4,8.68h78.66A7.71,7.71,0,0,0,758,321C761.94,311,756.89,298.73,748.44,298.4Z" transform="translate(-571.65 -261.04)"/></g><path class="cls-10" d="M787.45,460.31H671.16a56.42,56.42,0,1,1,0-112.84h81.31v27.06c0,1.31.72,1.66,1.69,0.77l45.23-41.61a2.16,2.16,0,0,0,0-3.22l-45.19-41.61c-1-.89-1.7-0.54-1.7.77v27.26H671.16a86.75,86.75,0,0,0,0,173.5H787.45A15,15,0,1,0,787.45,460.31Z" transform="translate(-571.65 -261.04)"/><path class="cls-11" d="M671.16,485.06a81.41,81.41,0,0,1,0-162.83h86.65V299.4l35.54,32.68-35.54,32.67V342.13H671.16a61.76,61.76,0,1,0,0,123.52H787.45a9.71,9.71,0,1,1,0,19.41H671.16Z" transform="translate(-571.65 -261.04)"/><path class="cls-12" d="M696.83,342.13l-8.37-19.9h-5.8l8.37,19.9h5.8Zm-25.67,0h2.47l-8.28-19.53c-1.86.13-3.71,0.34-5.55,0.6l8.07,19C669,342.17,670.06,342.13,671.16,342.13Zm37.26,0-8.37-19.9h-5.8l8.37,19.9h5.8Zm11.6,0-8.37-19.9h-5.8l8.37,19.9H720Zm11.6,0-8.37-19.9h-5.8l8.37,19.9h5.8Zm-98.74,13.31L625,336.89q-2.25,1.57-4.4,3.29l8,18.93Q630.67,357.18,632.88,355.44ZM617.34,373.5l-9-21.24q-2,2.38-3.73,4.88l9.6,22.66A61.58,61.58,0,0,1,617.34,373.5Zm24.62-24-7.7-18.17q-2.38,1.23-4.69,2.61l7.76,18.31Q639.57,350.77,642,349.49Zm20.36-6.7-7.9-18.64q-2.65.56-5.25,1.29l7.78,18.36Q659.58,343.19,662.31,342.8Zm-0.38,122.26,8.54,20.08c0.23,0,.46-0.08.69-0.08h5.11L668,465.58C665.94,465.48,663.92,465.36,661.93,465.06Zm128,1,6,14.22A9.74,9.74,0,0,0,789.91,466.06Zm-11.73-.42,8.26,19.41h1a9.65,9.65,0,0,0,4.34-1L784,465.65h-5.8Zm15-133.56-3.43-3.15,1.92,4.53ZM589.8,403.87c0,0.15,0,.29,0,0.44l24.36,57.5a83,83,0,0,0,9.08,7.74L590.6,392.49A82,82,0,0,0,589.8,403.87Zm95.43-61.74-8.37-19.9h-5.7s-0.06.07-.1,0.07l8.37,19.82h5.8ZM609.57,409.9l-14.62-34.52a80.37,80.37,0,0,0-2.49,7.82l38.78,91.53a80.5,80.5,0,0,0,7.36,3.69L624,443.87A61.48,61.48,0,0,1,609.57,409.9Zm15-46.61-8.25-19.47q-1.36,1.24-2.67,2.55-0.73.73-1.43,1.47l8.57,20.22Q622.6,365.58,624.61,363.29Zm-22.79,83.06-9.55-22.54A80.33,80.33,0,0,0,601.82,446.35Zm49.94-101.07-7.71-18.2q-2.52.9-5,2l7.68,18.13Q649.21,346.12,651.76,345.28ZM766.58,465.65l8.26,19.41h5.8l-8.26-19.41h-5.8Zm-23.19,0,8.26,19.41h5.8l-8.26-19.41h-5.8Zm11.42-123.52-8.37-19.9h-5.8l8.37,19.9h5.8ZM755,465.65l8.26,19.41H769l-8.26-19.41H755ZM743.21,342.13l-8.37-19.9H729l8.37,19.9h5.8ZM611.58,387.27L601.1,362.55q-1.75,3-3.24,6l11.86,28A61.28,61.28,0,0,1,611.58,387.27Zm176-50-7.25-17.1-9.5-8.73,12.57,29.67ZM779.19,345l-17.83-42.25-3.55-3.33v8.47l17.28,40.94Zm-8.28,7.67-13.1-31.09v0.68h-5.58l14.47,34.16ZM758.4,364.15l4.21-3.84-4.79-11.39v13.68ZM648.86,461.6l9.59,22.64q3,0.48,6.1.72l-9-21.2A61.4,61.4,0,0,1,648.86,461.6Zm36.55,4,8.26,19.41h5.8l-8.26-19.41h-5.8Zm46.38,0,8.26,19.41h5.8l-8.26-19.41h-5.8Zm-98.14-12.57,11.88,28q3.25,1.08,6.6,1.88l-10.48-24.72A62.11,62.11,0,0,1,633.66,453.07Zm40.16,12.57,8.26,19.41h5.8l-8.26-19.41h-5.8Zm23.19,0,8.26,19.41h5.8l-8.26-19.41H697Zm23.19,0,8.26,19.41h5.8L726,465.65h-5.8Zm-11.6,0,8.26,19.41h5.8l-8.26-19.41h-5.8Z" transform="translate(-571.65 -261.04)"/><path class="cls-13" d="M725.54,348.91s-5,5.93-6.79,7.42c-1.29,1.07-2.62-.84-3.46-2s0.78-6.23,3.44-9.87C720.77,341.68,725.62,348.24,725.54,348.91Z" transform="translate(-571.65 -261.04)"/><path class="cls-14" d="M744.1,332c-2.88,5.76-16,23.2-16,23.2s-2.13.09-5.7-2.09c-5.35-3.29-6.2-5.87-6.2-5.87s6.08-13.27,11-21.78c3.91-6.73,11.16-8.9,15.94-5.16C747.08,323.41,745.71,328.82,744.1,332Z" transform="translate(-571.65 -261.04)"/><path class="cls-15" d="M690.38,425.38s8.5,2.58,9.13,2.73,1.84,0.41.78,2.42-1.37,2.66-1.37,2.66-8.52-5.15-9.37-5.81S688.39,425.59,690.38,425.38Z" transform="translate(-571.65 -261.04)"/><path class="cls-16" d="M706.43,380.19c-1.55,6.93-1.08,7.07-2.69,15.5s-6.42,32.7-6.42,32.7a1.79,1.79,0,0,0,1.12.88,1.23,1.23,0,0,0,1.37-.37,48.7,48.7,0,0,1,3.89-9.44c2.18-3.57,13.61-26.59,15.74-31.23s2.1-8.79-3.35-10.78S707.1,377.15,706.43,380.19Z" transform="translate(-571.65 -261.04)"/><path class="cls-17" d="M741.09,363.93S714.25,374.71,709,377.08s-2.44,13.21,5.65,13.4,19.27,0.28,26.4-2.41,11.9-6.47,14.15-13.21S748.32,361,741.09,363.93Z" transform="translate(-571.65 -261.04)"/><path class="cls-15" d="M721,427.48s8.83,0.9,9.49.93,1.89,0,1.22,2.23-0.83,2.87-.83,2.87-9.35-3.43-10.31-3.91S719.13,428.07,721,427.48Z" transform="translate(-571.65 -261.04)"/><path class="cls-10" d="M731.5,380.26c-0.66,7.07-.18,7.15-0.73,15.72s-2.26,33.25-2.26,33.25a1.8,1.8,0,0,0,1.22.74,1.23,1.23,0,0,0,1.31-.54,48.72,48.72,0,0,1,2.67-9.86c1.71-3.81,10.16-28.09,11.7-33s1-9-4.68-10.28S731.79,377.16,731.5,380.26Z" transform="translate(-571.65 -261.04)"/><path class="cls-10" d="M768,362.65c-26.75,10.87-27.11,11-33.87,14-5.28,2.38-2.44,13.21,5.65,13.4s19.79,1.06,26.2-3.06C773.77,382,770.13,369.29,768,362.65Z" transform="translate(-571.65 -261.04)"/><path class="cls-18" d="M734.75,319.21c-8.72,2.64-7.36,10.65-6.87,17.43,1.48,20.2-1.73,33.16-1.73,33.16s6.37,6.66,22.52,5c18.74-2,20.74-9.26,20.74-9.26s-6.67-27.49-14.17-41.66c-2.13-4-7.22-7-14.6-6A35.73,35.73,0,0,0,734.75,319.21Z" transform="translate(-571.65 -261.04)"/><path class="cls-19" d="M725.57,301.19a3.36,3.36,0,0,1,2.67-3.3,3.08,3.08,0,0,1,4,2.57,3.5,3.5,0,0,1,3.3-2.92c3.38-.22,4.06,3.49,4.06,3.49a2.07,2.07,0,0,1,2.89.66c1.89,2.94-.65,4.52-0.65,4.52a3.13,3.13,0,0,1,1.49,3.43c-0.33,1.82-2.55,2.69-2.55,2.69a2.17,2.17,0,0,1-.68,3.19,4.59,4.59,0,0,1-3.66.46L728,312.93a4.09,4.09,0,0,1-2.87-.86,3.17,3.17,0,0,1-.61-2.9,3.2,3.2,0,0,1-2.52-2.06,2.57,2.57,0,0,1,.81-2.78,2.33,2.33,0,0,1-.35-3C723.44,300,725.57,301.19,725.57,301.19Z" transform="translate(-571.65 -261.04)"/><path class="cls-19" d="M731.44,320.88c0.11,2.73-.4,8.92,5.76,7.18,7.23-2,7.07-10,6.46-10.74-1.38-1.73-4,0-5.86.54S731.34,318.56,731.44,320.88Z" transform="translate(-571.65 -261.04)"/><path class="cls-13" d="M741.7,317.6l-1.1.19a35.58,35.58,0,0,0-5.79,1.73,12.57,12.57,0,0,0-1.81.82c0.16,1.75-.44,6.84,4.23,5.66S742.18,319.21,741.7,317.6Z" transform="translate(-571.65 -261.04)"/><path class="cls-13" d="M740.36,318c-2.67-3.89-3.63-6.37-6.28-9.73,0-.14-5.54,2.6-7.92.11a31.71,31.71,0,0,0,2.24,7c1.41,2.84,2.79,4.19,5.28,1.88a28.26,28.26,0,0,1,.87,4.61c0.3,2.68,2.24,3,3.48,2.71S743.19,322.1,740.36,318Z" transform="translate(-571.65 -261.04)"/><ellipse class="cls-13" cx="735.98" cy="310.18" rx="2.34" ry="1.58" transform="translate(-557.67 390.59) rotate(-48.16)"/><path class="cls-13" d="M739.23,331.67c-0.23-.77-1.13-3-1.64-2.82-1.46.59-1,4-.48,5.55a0.92,0.92,0,0,0,1.37.64A4.55,4.55,0,0,0,739.23,331.67Z" transform="translate(-571.65 -261.04)"/><path class="cls-13" d="M720.53,356.28c6.83-3.66,16.32-16.52,19.34-19.66,6.22-1.19,1.47-5.73,5.25-6.28,2.41-.35,2.71-3-0.78-2.49-2.2.33-6.33-.6-7.15,6.51-0.62,2-13.75,11.21-18,14.4-1.92,1.44-4.65,3.8-4,5.39C716.26,356.7,718,357.64,720.53,356.28Z" transform="translate(-571.65 -261.04)"/><path class="cls-13" d="M772.73,340.33s4.86,6,6,8.09c0.8,1.47-1.33,2.41-2.63,3s-6-2-9-5.28C764.72,343.62,772.09,340.12,772.73,340.33Z" transform="translate(-571.65 -261.04)"/><path class="cls-14" d="M751.88,320c6.34,4.06,24.57,22.7,24.57,22.7s-0.32,2.11-3.16,5.18c-4.26,4.62-7,5-7,5a51.38,51.38,0,0,1-10.83-6.9c-2.91-2.35-3.87-8.85-5.33-15.15C749,325.92,748.84,318,751.88,320Z" transform="translate(-571.65 -261.04)"/><path class="cls-14" d="M711.79,369.55a1.39,1.39,0,0,0,1.3,1.05h30.83a0.85,0.85,0,0,0,.87-1.05l-4.27-20.09a1.39,1.39,0,0,0-1.3-1.05H708.39a0.85,0.85,0,0,0-.87,1.05Z" transform="translate(-571.65 -261.04)"/><path class="cls-20" d="M728.31,359.5a2.77,2.77,0,0,1-2.58-2.14,2,2,0,0,1,0-.88h-0.19a2.39,2.39,0,0,0-2.4,3,3.92,3.92,0,0,0,3.65,3,2.39,2.39,0,0,0,2.4-3c0-.06,0-0.13,0-0.19A1.86,1.86,0,0,1,728.31,359.5Z" transform="translate(-571.65 -261.04)"/><path class="cls-13" d="M746.24,358.53c-0.86-.48-3.63-1.73-4-1.05-0.89,1.61,1.07,1.51,2.17,3.56,0.71,1.32,4.68.31,4.68,0.31A8.53,8.53,0,0,0,746.24,358.53Z" transform="translate(-571.65 -261.04)"/><path class="cls-13" d="M774.67,347c-7.55,1.73-22.82,12.9-26.45,13.23-2.36.22-3.23-2-7.33-.14-2,.92-1.81,6.95.31,7.52,4.84,1.3,7.05-.74,8.16-4.07,1.56-1.39,19.68-7,24.64-8.94,2.24-.88,5.49-2.44,5.26-4.16C778.91,347.69,777.47,346.33,774.67,347Z" transform="translate(-571.65 -261.04)"/><g class="cls-21"><path class="cls-5" d="M722.63,498.3c3.86-9.08.7-18.13-3.35-17.54C713.17,481.64,716.76,493.57,722.63,498.3Z" transform="translate(-571.65 -261.04)"/><path class="cls-5" d="M734.16,513.37q-1.26-2.07-2.67-4c5.16-5.89,5.33-13.37,2.07-14.16-4.12-1-5.53,5.65-4.29,11.23a66.17,66.17,0,0,0-10.41-10.34,1.06,1.06,0,0,0-.35-0.18c-6.12-4.07-14.24-2.77-15,1.52s7.51,9.82,19.95,5.61a63.43,63.43,0,0,1,10.83,14.87l2.16-.45C735.72,516.05,735,514.69,734.16,513.37Z" transform="translate(-571.65 -261.04)"/><path class="cls-6" d="M720.67,520.37c-1.8,4.38,0,9.33,2.55,13.56H756.6a26.08,26.08,0,0,0-5.21-11.57C742.28,510.26,724.87,510.14,720.67,520.37Z" transform="translate(-571.65 -261.04)"/><path class="cls-5" d="M731.71,533.94c-6.16-10.89-18.47-14.78-24.36-8.68-2.67,2.76-2.5,5.93-1.4,8.68h25.76Z" transform="translate(-571.65 -261.04)"/><path class="cls-5" d="M775.49,510.43c8.45,0.33,13.5,12.55,9.53,22.62a7.73,7.73,0,0,1-.41.88H753.1c-5.9-5.6-15.5-19.13-9.71-23.5,6-4.55,17.11,2.11,23.21,9.68C767.89,515.16,770.2,510.22,775.49,510.43Z" transform="translate(-571.65 -261.04)"/><g class="cls-7"><path class="cls-22" d="M722.63,498.3c3.86-9.08.7-18.13-3.35-17.54C713.17,481.64,716.76,493.57,722.63,498.3Z" transform="translate(-571.65 -261.04)"/><path class="cls-23" d="M775.49,510.43c-5.3-.21-7.6,4.73-8.89,9.68-6.1-7.57-17.19-14.23-23.21-9.68a4.8,4.8,0,0,0-1.78,4.27,21.61,21.61,0,0,0-7.7-1.72q-1.15-1.87-2.43-3.65c5.16-5.89,5.33-13.37,2.07-14.16-4.12-1-5.53,5.65-4.29,11.23a66.17,66.17,0,0,0-10.41-10.34,1.06,1.06,0,0,0-.35-0.18c-6.12-4.07-14.24-2.77-15,1.52s7.51,9.82,19.95,5.61a63.11,63.11,0,0,1,8,10.05c-4.87.5-9,3-10.79,7.3a9.84,9.84,0,0,0-.71,3.05c-4.76-1.8-9.55-1.33-12.61,1.83-2.67,2.76-2.5,5.93-1.4,8.68h78.66a7.73,7.73,0,0,0,.41-0.88C789,523,783.95,510.77,775.49,510.43Z" transform="translate(-571.65 -261.04)"/></g><path class="cls-20" d="M821.49,530.92c4.37-2.67,5.93-7.25,4.78-13.9-0.82-4.75-2.76-7.39-4.54-8.94a37.75,37.75,0,0,1-.07,4.2c-0.29,4.13-2.39,14.76-8.52,14.76h0a5.11,5.11,0,0,1-2.48-.5c-4.69-2.47-2.8-8.73-1.14-14.31a40.58,40.58,0,0,0,1.59-6.49c0.3-2.87-.57-4.1-1.46-4.94-1.44-1.36-4.1-2.47-8.12-3.42a31.55,31.55,0,0,0-7.22-.86c-0.5,0-1,0-1.41,0a31.59,31.59,0,0,1,4.27,6.93c1.47,3.3,1.64,5.71.53,7.42a4.09,4.09,0,0,1-3.54,1.81h0a8.45,8.45,0,0,1-4.61-1.69c-3.53-2.49-4.67-5.61-6.4-10.36l-0.52-1.42c-0.69-1.87-1.17-1.87-1.46-1.87A15.62,15.62,0,0,0,777,498.6l-1.74.65a24.57,24.57,0,0,1-7,1.34,17.19,17.19,0,0,1,.9,3c0.81,3.93-.61,7.24-1.55,9.42-0.13.31-.29,0.68-0.42,1,0.82,0.16,2,.29,2.85.39a25.54,25.54,0,0,1,6.58,1.33c3.82,1.57,3.64,4.14,3.49,4.89-0.44,2.23-2.83,3.62-6.23,3.62a14.16,14.16,0,0,1-1.9-.13,44.92,44.92,0,0,1-4.7-.92,19.94,19.94,0,0,0,1.47,1.7c1.5,1.55,2.2,1.55,2.58,1.55a11.76,11.76,0,0,0,2.78-.6,32.43,32.43,0,0,1,7.14-1.37c0.53,0,1-.06,1.49-0.06,4.66,0,5.56,2,5.68,3.33a3.55,3.55,0,0,1-1.43,3.17h34.43Z" transform="translate(-571.65 -261.04)"/><path class="cls-24" d="M772.43,521.47a52.61,52.61,0,0,1-9.49-2.39s-0.61,2.89,4,7.66,6.51,1,14.61.39,3.5,4-3,5.16-12.94-4.23-12.94-4.23a20.25,20.25,0,0,0,1.87,5.86h54.8c5.4-3.11,8.16-8.56,6.66-17.2-2-11.83-10.37-13.17-10.37-13.17a32.88,32.88,0,0,1,.46,8.71c-0.36,5.1-3,14.22-7.09,12s1.21-12.08,1.86-18.27-2.87-9.2-11.62-11.26-14.66-.06-14.66-0.06a29.34,29.34,0,0,1,7.26,9.85c2.72,6.13-.52,6.5-3.65,4.3s-3.9-5-5.95-10.54-5.34-3.55-10.75-1.6a26.41,26.41,0,0,1-11.48,1s2.65,1.27,3.7,6.4-2.73,9-2.26,11.14,7.5,1.38,11.32,2.94S777.14,522.11,772.43,521.47Zm52.62-.65c2.43,1.34-2.06,6.94-4.08,5.47S822.35,519.34,825,520.83Zm-15.19,7.81c-1.78,3-6.64-1.37-5-3.08C806.88,523.53,811.63,525.65,809.86,528.64Zm-7.54-26.53a3.92,3.92,0,0,1,3.57,4.53c-0.21,3.67-4.31,2.77-4.9-.34S802.32,502.1,802.32,502.1Zm-2,10c3.56-.23,4.63,6.59.77,6.73S796.88,512.28,800.29,512.06Zm-28.35.65c-2.86-.18-3.43-1.88-1.91-3.06,1.1-.85,1.47-2.21,4.06-0.46S774.8,512.89,771.94,512.71Zm13.53,6.22c3.69-.13,3.44,1.61,1.4,3s-4.75-1-4.36-1.94S785.47,518.93,785.47,518.93Zm-7.63-19.4h-0.1c1-.53,3.48-1.61,4.56,3.21s-2.29,4.79-4.1,2.37S776,500.66,777.84,499.52Z" transform="translate(-571.65 -261.04)"/><path class="cls-25" d="M772.43,521.47a52.61,52.61,0,0,1-9.49-2.39s-0.61,2.89,4,7.66,6.51,1,14.61.39,3.5,4-3,5.16-12.94-4.23-12.94-4.23a20.25,20.25,0,0,0,1.87,5.86h54.8c5.4-3.11,8.16-8.56,6.66-17.2-2-11.83-10.37-13.17-10.37-13.17a32.88,32.88,0,0,1,.46,8.71c-0.36,5.1-3,14.22-7.09,12s1.21-12.08,1.86-18.27-2.87-9.2-11.62-11.26-14.66-.06-14.66-0.06a29.34,29.34,0,0,1,7.26,9.85c2.72,6.13-.52,6.5-3.65,4.3s-3.9-5-5.95-10.54-5.34-3.55-10.75-1.6a26.41,26.41,0,0,1-11.48,1s2.65,1.27,3.7,6.4-2.73,9-2.26,11.14,7.5,1.38,11.32,2.94S777.14,522.11,772.43,521.47Zm52.62-.65c2.43,1.34-2.06,6.94-4.08,5.47S822.35,519.34,825,520.83Zm-15.19,7.81c-1.78,3-6.64-1.37-5-3.08C806.88,523.53,811.63,525.65,809.86,528.64Zm-7.54-26.53a3.92,3.92,0,0,1,3.57,4.53c-0.21,3.67-4.31,2.77-4.9-.34S802.32,502.1,802.32,502.1Zm-2,10c3.56-.23,4.63,6.59.77,6.73S796.88,512.28,800.29,512.06Zm-28.35.65c-2.86-.18-3.43-1.88-1.91-3.06,1.1-.85,1.47-2.21,4.06-0.46S774.8,512.89,771.94,512.71Zm13.53,6.22c3.69-.13,3.44,1.61,1.4,3s-4.75-1-4.36-1.94S785.47,518.93,785.47,518.93Zm-7.63-19.4h-0.1c1-.53,3.48-1.61,4.56,3.21s-2.29,4.79-4.1,2.37S776,500.66,777.84,499.52Z" transform="translate(-571.65 -261.04)"/><path class="cls-26" d="M776.32,506.36c1.76,1.38,3.77,3.08,5.89,5,1.06,1,2.14,2,3.23,3.1s2.21,2.22,3.36,3.35c2.3,2.25,4.73,4.51,7.19,6.63s4.94,4.11,7.32,5.84c1.88,1.37,3.71,2.59,5.38,3.62H812l-1.2-.66c-2-1.12-4.28-2.51-6.67-4.16s-4.91-3.53-7.41-5.56-5-4.19-7.35-6.35c-1.19-1.08-2.33-2.17-3.47-3.22s-2.26-2.06-3.36-3c-2.19-1.88-4.27-3.52-6.09-4.84s-3.36-2.32-4.46-3-1.75-1-1.75-1,0.64,0.33,1.71,1S774.56,505,776.32,506.36Z" transform="translate(-571.65 -261.04)"/><path class="cls-5" d="M590.84,527.28c3.86-9.08.7-18.13-3.35-17.54C581.38,510.61,585,522.55,590.84,527.28Z" transform="translate(-571.65 -261.04)"/><path class="cls-5" d="M602.37,542.35q-1.26-2.07-2.67-4c5.16-5.89,5.33-13.37,2.07-14.16-4.12-1-5.53,5.65-4.29,11.23A66.16,66.16,0,0,0,587.08,525a1.07,1.07,0,0,0-.35-0.18c-6.12-4.07-14.24-2.77-15,1.52s7.51,9.82,19.95,5.61a63.43,63.43,0,0,1,10.83,14.87l2.16-.45C603.93,545,603.18,543.67,602.37,542.35Z" transform="translate(-571.65 -261.04)"/><path class="cls-6" d="M588.88,549.35c-1.8,4.38,0,9.33,2.55,13.56h33.38a26.09,26.09,0,0,0-5.21-11.57C610.49,539.24,593.09,539.11,588.88,549.35Z" transform="translate(-571.65 -261.04)"/><path class="cls-5" d="M599.93,562.91c-6.16-10.89-18.47-14.78-24.36-8.68-2.67,2.76-2.5,5.93-1.4,8.68h25.76Z" transform="translate(-571.65 -261.04)"/><path class="cls-5" d="M643.71,539.41c8.45,0.33,13.5,12.55,9.53,22.62a7.7,7.7,0,0,1-.41.88H621.32c-5.9-5.6-15.5-19.13-9.71-23.5,6-4.55,17.11,2.11,23.21,9.68C636.11,544.13,638.41,539.2,643.71,539.41Z" transform="translate(-571.65 -261.04)"/><g class="cls-7"><path class="cls-27" d="M590.84,527.28c3.86-9.08.7-18.13-3.35-17.54C581.38,510.61,585,522.55,590.84,527.28Z" transform="translate(-571.65 -261.04)"/><path class="cls-28" d="M643.71,539.41c-5.3-.21-7.6,4.73-8.89,9.68-6.1-7.57-17.19-14.23-23.21-9.68a4.8,4.8,0,0,0-1.78,4.27,21.61,21.61,0,0,0-7.7-1.72q-1.15-1.87-2.43-3.65c5.16-5.89,5.33-13.37,2.07-14.16-4.12-1-5.53,5.65-4.29,11.23A66.16,66.16,0,0,0,587.08,525a1.07,1.07,0,0,0-.35-0.18c-6.12-4.07-14.24-2.77-15,1.52s7.51,9.82,19.95,5.61a63.12,63.12,0,0,1,8,10.05c-4.87.5-9,3-10.79,7.3a9.84,9.84,0,0,0-.71,3.05c-4.76-1.8-9.55-1.33-12.61,1.83-2.67,2.76-2.5,5.93-1.4,8.68h78.66a7.7,7.7,0,0,0,.41-0.88C657.21,552,652.17,539.74,643.71,539.41Z" transform="translate(-571.65 -261.04)"/></g><path class="cls-20" d="M680.81,560c4.37-2.67,5.93-7.32,4.78-14-0.82-4.75-2.76-7.43-4.54-9a38.74,38.74,0,0,1-.07,4.26c-0.29,4.13-2.39,14.81-8.52,14.81h0a5.19,5.19,0,0,1-2.48-.57c-4.69-2.47-2.8-8.77-1.14-14.35a40.75,40.75,0,0,0,1.59-6.51c0.3-2.87-.57-4.11-1.46-5-1.44-1.36-4.1-2.48-8.12-3.42a31.55,31.55,0,0,0-7.22-.86c-0.5,0-1,0-1.41,0a31.57,31.57,0,0,1,4.27,6.93c1.47,3.3,1.64,5.66.53,7.37a4.06,4.06,0,0,1-3.54,1.76h0a8.42,8.42,0,0,1-4.61-1.64c-3.53-2.49-4.67-5.59-6.4-10.34l-0.52-1.4c-0.69-1.87-1.17-1.86-1.46-1.86a15.64,15.64,0,0,0-4.14,1.22l-1.74.65a24.55,24.55,0,0,1-7,1.34,17.21,17.21,0,0,1,.9,3c0.81,3.93-.61,7.24-1.55,9.42-0.13.31-.29,0.68-0.42,1,0.82,0.16,2,.29,2.85.39a25.55,25.55,0,0,1,6.58,1.32c3.82,1.57,3.64,4.14,3.49,4.89-0.44,2.23-2.83,3.62-6.23,3.62a14.2,14.2,0,0,1-1.9-.13,44.91,44.91,0,0,1-4.7-.92,19.91,19.91,0,0,0,1.47,1.7c1.5,1.55,2.2,1.55,2.58,1.55a11.76,11.76,0,0,0,2.78-.6,32.42,32.42,0,0,1,7.14-1.37c0.53,0,1-.06,1.49-0.06,4.66,0,5.56,2.09,5.68,3.4a3.68,3.68,0,0,1-1.43,3.24h34.43Z" transform="translate(-571.65 -261.04)"/><path class="cls-14" d="M631.76,550.45a52.63,52.63,0,0,1-9.49-2.39s-0.61,2.89,4,7.66,6.51,1,14.61.39,3.5,4-3,5.16-12.94-4.23-12.94-4.23a20.24,20.24,0,0,0,1.87,5.86h54.8c5.4-3.11,8.16-8.56,6.66-17.2-2-11.83-10.37-13.17-10.37-13.17a32.88,32.88,0,0,1,.46,8.71c-0.36,5.1-3,14.22-7.09,12s1.21-12.08,1.86-18.27-2.87-9.2-11.62-11.26-14.66-.06-14.66-0.06a29.34,29.34,0,0,1,7.26,9.85c2.72,6.13-.52,6.5-3.65,4.3s-3.9-5-5.95-10.54-5.34-3.55-10.75-1.6a26.42,26.42,0,0,1-11.48,1s2.65,1.27,3.7,6.4-2.73,9-2.26,11.14,7.5,1.38,11.32,2.94S636.47,551.09,631.76,550.45Zm52.62-.65c2.43,1.34-2.06,6.94-4.08,5.47S681.68,548.31,684.37,549.8Zm-15.19,7.81c-1.78,3-6.64-1.37-5-3.08C666.21,552.5,671,554.63,669.19,557.61Zm-7.54-26.53a3.92,3.92,0,0,1,3.57,4.53c-0.21,3.67-4.31,2.77-4.9-.34S661.65,531.08,661.65,531.08Zm-2,10c3.56-.23,4.63,6.59.77,6.73S656.21,541.26,659.62,541Zm-28.35.65c-2.86-.18-3.43-1.88-1.91-3.06,1.1-.85,1.47-2.21,4.06-0.46S634.13,541.87,631.27,541.68Zm13.53,6.22c3.69-.13,3.44,1.61,1.4,3s-4.75-1-4.36-1.94S644.8,547.9,644.8,547.9Zm-7.63-19.4h-0.1c1-.53,3.48-1.61,4.56,3.21s-2.29,4.79-4.1,2.37S635.28,529.64,637.17,528.5Z" transform="translate(-571.65 -261.04)"/><path class="cls-29" d="M631.76,550.45a52.63,52.63,0,0,1-9.49-2.39s-0.61,2.89,4,7.66,6.51,1,14.61.39,3.5,4-3,5.16-12.94-4.23-12.94-4.23a20.24,20.24,0,0,0,1.87,5.86h54.8c5.4-3.11,8.16-8.56,6.66-17.2-2-11.83-10.37-13.17-10.37-13.17a32.88,32.88,0,0,1,.46,8.71c-0.36,5.1-3,14.22-7.09,12s1.21-12.08,1.86-18.27-2.87-9.2-11.62-11.26-14.66-.06-14.66-0.06a29.34,29.34,0,0,1,7.26,9.85c2.72,6.13-.52,6.5-3.65,4.3s-3.9-5-5.95-10.54-5.34-3.55-10.75-1.6a26.42,26.42,0,0,1-11.48,1s2.65,1.27,3.7,6.4-2.73,9-2.26,11.14,7.5,1.38,11.32,2.94S636.47,551.09,631.76,550.45Zm52.62-.65c2.43,1.34-2.06,6.94-4.08,5.47S681.68,548.31,684.37,549.8Zm-15.19,7.81c-1.78,3-6.64-1.37-5-3.08C666.21,552.5,671,554.63,669.19,557.61Zm-7.54-26.53a3.92,3.92,0,0,1,3.57,4.53c-0.21,3.67-4.31,2.77-4.9-.34S661.65,531.08,661.65,531.08Zm-2,10c3.56-.23,4.63,6.59.77,6.73S656.21,541.26,659.62,541Zm-28.35.65c-2.86-.18-3.43-1.88-1.91-3.06,1.1-.85,1.47-2.21,4.06-0.46S634.13,541.87,631.27,541.68Zm13.53,6.22c3.69-.13,3.44,1.61,1.4,3s-4.75-1-4.36-1.94S644.8,547.9,644.8,547.9Zm-7.63-19.4h-0.1c1-.53,3.48-1.61,4.56,3.21s-2.29,4.79-4.1,2.37S635.28,529.64,637.17,528.5Z" transform="translate(-571.65 -261.04)"/><path class="cls-26" d="M635.65,535.34c1.76,1.38,3.77,3.08,5.89,5,1.06,1,2.14,2,3.23,3.1s2.21,2.22,3.36,3.34c2.3,2.25,4.73,4.51,7.19,6.63s4.93,4.11,7.32,5.84c1.88,1.37,3.71,2.59,5.38,3.62h3.34l-1.2-.66c-2-1.12-4.28-2.51-6.67-4.16s-4.91-3.53-7.41-5.56-5-4.19-7.35-6.35c-1.19-1.08-2.33-2.17-3.47-3.22s-2.26-2.06-3.36-3c-2.19-1.88-4.27-3.52-6.09-4.84s-3.36-2.32-4.46-3-1.75-1-1.75-1,0.64,0.33,1.71,1S633.89,534,635.65,535.34Z" transform="translate(-571.65 -261.04)"/><path class="cls-30" d="M851.09,414.94a86.12,86.12,0,0,0-61.25-25.49H708.55V361.93c0-1.31-.74-1.66-1.7-0.77l-45.22,41.61a2.16,2.16,0,0,0,0,3.22l45.21,41.61c1,0.89,1.71.54,1.71-.77v-27h81.29a56.42,56.42,0,1,1,0,112.84H673.55a15,15,0,1,0,0,30.09H789.84A86.49,86.49,0,0,0,851.09,414.94Z" transform="translate(-571.65 -261.04)"/><path class="cls-31" d="M673.55,557.37a9.71,9.71,0,1,1,0-19.41H789.84a61.76,61.76,0,1,0,0-123.52H703.21V437l-35.45-32.62,35.45-32.62v23h86.63a81.29,81.29,0,0,1,0,162.58H673.55Z" transform="translate(-571.65 -261.04)"/><path class="cls-32" d="M824.85,425.36l-11.39-26.88q-3.21-1-6.5-1.67l10.18,24A62,62,0,0,1,824.85,425.36Zm-51-10.92-8.26-19.66h-5.8l8.26,19.66h5.8Zm11.6,0-8.26-19.66h-5.8l8.26,19.66h5.8Zm-58,0-8.26-19.66h-5.8l8.26,19.66h5.8Zm69.76,0.39-8.44-20H783l8.26,19.56C793.28,414.39,795.27,414.59,797.24,414.83Zm-35-.39L754,394.79h-5.8l8.26,19.66h5.8Zm-23.19,0-8.26-19.66H725l8.26,19.66h5.8Zm11.6,0-8.26-19.66h-5.8l8.26,19.66h5.8ZM673.55,538a9.66,9.66,0,0,0-3.58.65l8,18.76h5.8L675.47,538h-1.92Zm7.72,0,8.26,19.41h5.8L687.07,538h-5.8Zm-17.46,9.87a9.76,9.76,0,0,0,8.28,9.63l-6.47-15.27A9.69,9.69,0,0,0,663.81,547.83Zm52.07-133.39-8.26-19.66h-4.41V384.62l-3.92-9.25-4.17,3.81,15,35.27h5.8ZM835.22,518.26l8.12,19.16q2-1.79,4-3.72l0.17-.17-8.41-19.84Q837.26,516.07,835.22,518.26ZM704.46,538l8.26,19.41h5.8L710.26,538h-5.8Zm-11.6,0,8.26,19.41h5.8L698.67,538h-5.8Zm23.19,0,8.26,19.41h5.8L721.86,538h-5.8Zm94-120.06-9.39-22.17q-3-.4-6-0.58L803.49,416A61.53,61.53,0,0,1,810.09,417.9ZM750.85,538l8.26,19.41h5.8L756.65,538h-5.8Zm97.86-42.59,10.13,23.91q1.79-2.85,3.33-5.82l-11.33-26.74A61.17,61.17,0,0,1,848.71,495.36Zm-21.89,30.45,7.76,18.31q2.27-1.51,4.45-3.18l-7.91-18.66Q829.05,524.14,826.82,525.81Zm15.84-17.35,8.8,20.78q2-2.3,3.79-4.73l-9.35-22.07A61.77,61.77,0,0,1,842.66,508.46Zm-25,23,7.61,18q2.41-1.17,4.74-2.5l-7.66-18.09Q820,530.28,817.63,531.5Zm-9.92,4,7.64,18q2.54-.84,5-1.85l-7.6-17.94Q810.29,534.68,807.71,535.46Zm46.87-108.32,15.74,37.16A80.42,80.42,0,0,0,854.59,427.13Zm-34.31-26.25,13.55,32a61.55,61.55,0,0,1,17.89,42.22l13.49,31.83q1.5-3.66,2.64-7.46l-40.35-95.23Q824,402.37,820.27,400.89Zm23.63,14.72a81.71,81.71,0,0,0-8.66-6.75l34.67,81.84a81.29,81.29,0,0,0,1.2-10.84ZM682.58,418l-8.31-19.62-4.17,3.84,3,7ZM727.66,538l8.26,19.41h5.8L733.45,538h-5.8ZM703.21,414.44h1.07L691,383l-4.17,3.85,16.43,38.8V414.44Zm36,123.52,8.26,19.41h5.8L745,538h-5.8Zm57.8-.29,7.84,18.51q2.67-.5,5.3-1.18l-7.71-18.21Q799.81,537.35,797.05,537.67ZM701.59,435.5l-19-44.78-4.17,3.84,13.64,32.2ZM789.84,538h-4.21l8.21,19.45c1.88-.09,3.75-0.22,5.6-0.44l-8-19C790.9,538,790.37,538,789.84,538Zm-27.4,0,8.26,19.41h5.8L768.24,538h-5.8Zm11.6,0,8.26,19.41h5.8L779.84,538H774Z" transform="translate(-571.65 -261.04)"/></g></g></g></svg>